<svg width="37" height="36" viewBox="0 0 37 36" fill="none" xmlns="http://www.w3.org/2000/svg">
<path d="M34.6875 4.82737H28.7074L24.7599 0.844372C24.3263 0.406872 23.739 0.160706 23.125 0.160706H13.875C13.261 0.160706 12.6737 0.406872 12.2401 0.844372L8.29262 4.82737H2.3125C1.03427 4.82737 0 5.87096 0 7.16071V32.8274C0 34.1171 1.03427 35.1607 2.3125 35.1607H34.6875C35.9657 35.1607 37 34.1171 37 32.8274V7.16071C37 5.87096 35.9657 4.82737 34.6875 4.82737ZM18.5 28.1607C13.3917 28.1607 9.25 23.9817 9.25 18.8274C9.25 13.673 13.3917 9.49404 18.5 9.49404C23.6083 9.49404 27.75 13.673 27.75 18.8274C27.75 23.9817 23.6083 28.1607 18.5 28.1607Z" fill="#FFB320"/>
<path d="M18.5 23.494C21.0543 23.494 23.125 21.4047 23.125 18.8274C23.125 16.2501 21.0543 14.1607 18.5 14.1607C15.9457 14.1607 13.875 16.2501 13.875 18.8274C13.875 21.4047 15.9457 23.494 18.5 23.494Z" fill="#FFB320"/>
</svg>
