<svg width="20" height="20" viewBox="0 0 20 20" fill="none" xmlns="http://www.w3.org/2000/svg">
<path d="M3.8125 16.1875C4.04691 16.4218 4.3648 16.5535 4.69625 16.5535C5.02771 16.5535 5.34559 16.4218 5.58 16.1875L10 11.7675L14.42 16.1875C14.6558 16.4152 14.9715 16.5412 15.2993 16.5383C15.627 16.5355 15.9405 16.404 16.1723 16.1723C16.404 15.9405 16.5355 15.627 16.5383 15.2993C16.5412 14.9715 16.4152 14.6558 16.1875 14.42L11.7675 10L16.1875 5.58C16.4152 5.34425 16.5412 5.02849 16.5383 4.70075C16.5355 4.373 16.404 4.05949 16.1723 3.82773C15.9405 3.59597 15.627 3.4645 15.2993 3.46166C14.9715 3.45881 14.6558 3.5848 14.42 3.8125L10 8.2325L5.58 3.8125C5.34425 3.5848 5.0285 3.45881 4.70075 3.46166C4.373 3.4645 4.05949 3.59597 3.82773 3.82773C3.59597 4.05949 3.46451 4.373 3.46166 4.70075C3.45881 5.02849 3.5848 5.34425 3.8125 5.58L8.2325 10L3.8125 14.42C3.57816 14.6544 3.44652 14.9723 3.44652 15.3037C3.44652 15.6352 3.57816 15.9531 3.8125 16.1875Z" fill="#555555"/>
</svg>
