<svg width="22" height="22" viewBox="0 0 22 22" fill="none" xmlns="http://www.w3.org/2000/svg">
<g clip-path="url(#clip0_15_2)">
<path fill-rule="evenodd" clip-rule="evenodd" d="M11.0328 0C17.0974 0 22 5.04167 22 11.2789C22 16.2646 18.8587 20.485 14.5009 21.9787C13.9561 22.091 13.7565 21.736 13.7565 21.4374C13.7565 21.1759 13.7745 20.2796 13.7745 19.3458C16.8253 20.0182 17.4606 18.0013 17.4606 18.0013C17.9509 16.6941 18.6773 16.3581 18.6773 16.3581C19.6759 15.6672 18.6046 15.6672 18.6046 15.6672C17.497 15.7419 16.9158 16.825 16.9158 16.825C15.9354 18.5428 14.3557 18.0574 13.7201 17.7586C13.6294 17.0303 13.3387 16.5261 13.0301 16.2461C15.4633 15.9846 18.0234 15.0136 18.0234 10.6812C18.0234 9.44877 17.5879 8.44044 16.8978 7.65623C17.0067 7.37619 17.3881 6.21821 16.7887 4.66835C16.7887 4.66835 15.8627 4.36952 13.7747 5.8261C12.8808 5.57921 11.9589 5.45362 11.0328 5.45256C10.1068 5.45256 9.16278 5.58342 8.29108 5.8261C6.20288 4.36952 5.27686 4.66835 5.27686 4.66835C4.67747 6.21821 5.0591 7.37619 5.16798 7.65623C4.45972 8.44044 4.04216 9.44877 4.04216 10.6812C4.04216 15.0136 6.60225 15.9658 9.05367 16.2461C8.65408 16.6008 8.30927 17.273 8.30927 18.3375C8.30927 19.85 8.32723 21.0639 8.32723 21.4372C8.32723 21.736 8.12743 22.091 7.58282 21.9789C3.22502 20.4847 0.0837352 16.2646 0.0837352 11.2789C0.065776 5.04167 4.98637 0 11.0328 0Z" fill="#24292F"/>
</g>
<defs>
<clipPath id="clip0_15_2">
<rect width="22" height="22" fill="white" transform="matrix(-1 0 0 1 22 0)"/>
</clipPath>
</defs>
</svg>
