<svg width="60" height="60" viewBox="0 0 60 60" fill="none" xmlns="http://www.w3.org/2000/svg">
<path d="M30 59.5C13.7076 59.5 0.5 46.2924 0.5 30C0.5 13.7076 13.7076 0.5 30 0.5C46.2924 0.5 59.5 13.7076 59.5 30C59.5 46.2924 46.2924 59.5 30 59.5ZM30 55.0455C43.8322 55.0455 55.0455 43.8322 55.0455 30C55.0455 16.1678 43.8322 4.95455 30 4.95455C16.1678 4.95455 4.95455 16.1678 4.95455 30C4.95455 43.8322 16.1678 55.0455 30 55.0455ZM22.3182 16.8636H26.7727V43.1364H22.3182V16.8636ZM33.2273 16.8636H37.6818V43.1364H33.2273V16.8636Z" fill="white" stroke="white"/>
</svg>
