<svg width="60" height="60" viewBox="0 0 60 60" fill="none" xmlns="http://www.w3.org/2000/svg">
<path fill-rule="evenodd" clip-rule="evenodd" d="M30 60C13.4315 60 0 46.5685 0 30C0 13.4315 13.4315 0 30 0C46.5685 0 60 13.4315 60 30C60 46.5685 46.5685 60 30 60ZM30 54.5455C43.5561 54.5455 54.5455 43.5561 54.5455 30C54.5455 16.4439 43.5561 5.45455 30 5.45455C16.4439 5.45455 5.45455 16.4439 5.45455 30C5.45455 43.5561 16.4439 54.5455 30 54.5455ZM19.0909 43.6364V16.3636C19.0909 14.2215 21.4471 12.9156 23.2636 14.0509L45.0818 27.6873C46.7909 28.7555 46.7909 31.2445 45.0818 32.3127L23.2636 45.9491C21.4471 47.0844 19.0909 45.7785 19.0909 43.6364ZM38.4906 30L24.5455 21.2843V38.7157L38.4906 30Z" fill="white"/>
</svg>
