<svg width="40" height="40" viewBox="0 0 40 40" fill="none" xmlns="http://www.w3.org/2000/svg">
<path d="M15.725 16.9244C14.2344 17.7087 13.1875 18.99 12.8469 20.4306C12.6156 21.415 12.8531 22.6681 13.9906 23.2087C14.7906 23.59 15.7625 23.4744 16.5875 23.2556C19.6531 22.4337 21.6625 21.6619 22.1656 19.0556C22.2344 18.6931 22.7062 17.8306 22.4812 17.49C22.0187 16.7931 19.675 16.1025 18.9094 16.1275C17.6312 16.165 16.7562 16.3806 15.725 16.9244Z" fill="url(#paint0_linear_2_2)"/>
<g opacity="0.2">
<path d="M18.95 17.1875C19.5625 17.1875 21.0437 17.6156 21.5656 17.9656C21.525 18.0969 21.4656 18.225 21.4281 18.3281C21.3531 18.5313 21.2812 18.7094 21.2437 18.8938C20.8656 20.8531 19.4875 21.5125 16.3406 22.3563C15.9156 22.4688 15.5344 22.525 15.2031 22.525C14.8844 22.525 14.6125 22.4688 14.3906 22.3656C13.4844 21.9344 13.7281 20.7781 13.7562 20.6469C14.0312 19.4688 14.9094 18.475 16.1594 17.8156C17.0625 17.3437 17.7875 17.1875 18.9406 17.1875H19.0625M18.95 16.125C18.9375 16.125 18.9219 16.125 18.9094 16.125C17.6312 16.1656 16.7562 16.3781 15.725 16.9219C14.2344 17.7063 13.1875 18.9875 12.8469 20.4281C12.6156 21.4125 12.8531 22.6656 13.9906 23.2063C14.3687 23.3844 14.7844 23.4562 15.2062 23.4562C15.675 23.4562 16.1531 23.3688 16.5875 23.2531C19.6531 22.4313 21.6625 21.6594 22.1656 19.0531C22.2344 18.6906 22.7062 17.8281 22.4812 17.4875C22.0281 16.8031 19.7562 16.125 18.95 16.125Z" fill="#424242"/>
</g>
<path d="M31.4 31.9781C31.5969 34.4656 34.2219 36.4375 37.2156 35.6031C37.2719 36.0063 35.5062 36.45 34.9562 36.3188C33.1219 35.8719 32.2062 35.5281 31.2094 33.9188C28.6937 29.8563 30.0844 26.8094 26.9375 25.35C26.1312 24.975 25.4875 24.225 25.1562 23.3969C24.9187 22.7969 25.0687 22.0969 25.3969 21.5406C25.6437 21.125 25.9375 20.8063 26.2687 20.5719C30.9906 22.1469 30.6344 27.8094 31.4 31.9781Z" fill="#F5CA2C"/>
<path d="M33.5156 23.0125C36.6 27.1594 35.5875 34.0094 37.1594 35.4969C37.1969 35.5313 37.2094 35.5688 37.2156 35.6031C34.225 36.4375 32.35 35.4813 31.2719 32.0125C30.5031 27.8438 30.9469 24.1906 25.25 21.5719C27.4063 20.0312 32.0844 21.0906 33.5156 23.0125Z" fill="#F9E691"/>
<g opacity="0.2">
<path d="M26.4375 21.5219C26.5031 21.55 26.5688 21.5813 26.6313 21.6125C26.7625 21.6781 26.9063 21.7125 27.05 21.7125C27.0938 21.7125 27.1375 21.7094 27.1813 21.7031C27.4406 21.6656 27.7188 21.6469 28.0063 21.6469C29.8719 21.6469 31.9906 22.4531 32.7281 23.4406C34.3594 25.6312 34.7594 28.7844 35.0813 31.3156C35.2813 32.8906 35.45 34.2281 35.8813 35.1687C35.6406 35.2281 35.3781 35.275 35.1781 35.275C35.1531 35.275 35.1375 35.275 35.1313 35.275C33.4156 34.8562 32.7906 34.6062 31.9781 33.2969C30.9813 31.6906 30.6438 30.2406 30.3469 28.9656C29.9188 27.1312 29.5156 25.4 27.3031 24.3719C26.7438 24.1125 26.2563 23.5687 26 22.9219C25.9 22.6656 25.9531 22.3031 26.1469 21.9469C26.1563 21.9281 26.1688 21.9062 26.1781 21.8875C26.1938 21.8656 26.2094 21.8437 26.225 21.8219C26.2906 21.7094 26.3625 21.6094 26.4375 21.5219ZM26.2375 20.4375C25.9344 20.6531 25.6625 20.9437 25.4281 21.3125C25.3563 21.3562 25.2781 21.3937 25.2125 21.4406C25.25 21.4562 25.2844 21.475 25.3188 21.4937C25.025 22.0344 24.8969 22.6938 25.125 23.2625C25.4531 24.0906 26.1 24.8406 26.9063 25.2156C30.05 26.6781 28.6594 29.725 31.1781 33.7844C32.175 35.3937 33.0906 35.7375 34.925 36.1844C34.9938 36.2 35.0781 36.2094 35.1781 36.2094C35.8813 36.2094 37.2313 35.8219 37.1844 35.4719C37.1781 35.4344 37.1656 35.4 37.1281 35.3656C35.5563 33.8781 36.5688 27.025 33.4844 22.8812C32.5313 21.6031 30.1406 20.7094 28.0125 20.7094C27.6844 20.7094 27.3656 20.7313 27.0563 20.775C26.7969 20.6469 26.5281 20.5344 26.2375 20.4375Z" fill="#424242"/>
</g>
<path d="M29.325 21.8438C29.325 21.8438 29.3406 21.8531 29.3687 21.8688C29.4 21.8875 29.4406 21.9125 29.4937 21.9469C29.6 22.0125 29.75 22.1187 29.9281 22.2656C30.1062 22.4125 30.3187 22.5969 30.5437 22.825C30.7687 23.0562 31.0031 23.3281 31.2437 23.6438C31.4781 23.9594 31.7281 24.3094 31.9406 24.7062C32.1656 25.0969 32.3687 25.5281 32.5594 25.9781C32.6531 26.2031 32.7344 26.4406 32.825 26.675C32.8969 26.9156 32.9687 27.1594 33.0437 27.4031C33.1719 27.9094 33.2812 28.4156 33.3656 28.925C33.45 29.4344 33.5312 29.9406 33.6125 30.4406C33.6937 30.9375 33.7844 31.425 33.8937 31.8875C33.9437 32.1219 34.0219 32.3406 34.0812 32.5625C34.1594 32.775 34.2375 32.9844 34.3219 33.1844C34.425 33.375 34.5062 33.5719 34.6187 33.7406C34.7375 33.9031 34.8344 34.0812 34.9594 34.2187C35.0875 34.3562 35.2031 34.5 35.3281 34.6187C35.4625 34.7281 35.5875 34.8344 35.7094 34.9312C35.9625 35.1094 36.2 35.2406 36.3969 35.35C36.8094 35.5281 37.0469 35.6281 37.0469 35.6281C37.0469 35.6281 36.8031 35.5406 36.3812 35.3906C36.1781 35.2937 35.9281 35.1719 35.6594 35.0094C35.5312 34.9156 35.3937 34.8156 35.25 34.7125C35.1125 34.6 34.9875 34.4594 34.8437 34.3219C34.7031 34.1844 34.5969 34.0062 34.4656 33.8406C34.3406 33.6687 34.2469 33.4688 34.1344 33.275C34.0375 33.0719 33.9469 32.8594 33.8594 32.6406C33.7875 32.4156 33.7 32.1906 33.6375 31.9563C33.3656 31.0188 33.2187 29.9937 33.0125 28.9906C32.9125 28.4875 32.7937 27.9937 32.6594 27.5219C32.5812 27.2844 32.5031 27.0469 32.4281 26.8156C32.3406 26.5875 32.2594 26.3625 32.1656 26.1438C31.9781 25.7094 31.7812 25.2969 31.5625 24.9219C31.35 24.5437 31.1281 24.2031 30.9062 23.8937C30.4656 23.2812 30.0219 22.8313 29.7 22.5375C29.3687 22.2438 29.1687 22.1156 29.1687 22.1156L29.325 21.8438Z" fill="#DECD7F"/>
<path d="M24.5281 1.25266C21.4875 1.28391 22.2906 8.71203 22.1094 10.5152C21.1094 20.5652 19.1938 22.5183 15.35 26.262L24.0188 32.087C28.6344 26.5183 32.05 20.5214 30.3844 9.60891C29.0688 2.90266 26.2156 1.23391 24.5281 1.25266Z" fill="url(#paint1_linear_2_2)"/>
<g opacity="0.2">
<path d="M24.5531 2.1875C24.9031 2.1875 28.0094 2.4 29.4625 9.76875C30.9344 19.4469 28.4344 25.1062 23.8344 30.8344L16.8281 26.125C20.4156 22.5437 22.1125 19.9813 23.0438 10.6094C23.0844 10.2 23.0813 9.60625 23.075 8.85938C23.0656 7.0375 23.0375 2.1875 24.5375 2.1875H24.6875M24.5531 1.25C24.5438 1.25 24.5344 1.25 24.5281 1.25C21.4875 1.25 22.2906 8.7125 22.1094 10.5156C21.1094 20.5656 19.1938 22.5219 15.35 26.2625L24.0188 32.0875C28.6344 26.5188 32.05 20.5187 30.3844 9.60625C29.075 2.9375 26.2469 1.25 24.5531 1.25Z" fill="#424242"/>
</g>
<path d="M5.06562 38.0813C4.42187 37.8563 3.9875 37.6063 3.82812 37.3781C3.20937 36.4906 3.06875 35.2438 3.06875 35.2438C3.06875 35.2438 3.20937 35.175 3.45312 35.0531C4.74687 35.5531 5.575 36.4688 5.06562 38.0813Z" fill="#784B27"/>
<path d="M9.94063 31.275C19.7625 23.775 18.5469 21.2937 18.5469 21.2937C18.5469 21.2937 21.9125 21.6469 23.2438 22.7C24.575 23.7531 26.9781 23.675 27.8625 23.8031C28.7438 23.9312 29.025 24.2969 29.025 24.2969C29.025 24.2969 27.0656 31.6656 19.1688 36.2312C13.6313 39.4344 7.64688 38.975 5.06875 38.075C5.57813 36.4625 4.75 35.5469 3.45625 35.0469C4.60938 34.4687 8.11875 32.6656 9.94063 31.275Z" fill="url(#paint2_linear_2_2)"/>
<g opacity="0.2">
<path d="M19.4281 22.3688C20.6062 22.575 22.0406 22.9469 22.6625 23.4375C23.9469 24.4531 25.8312 24.5875 27.0781 24.675C27.3469 24.6937 27.5781 24.7094 27.7281 24.7312C27.7844 24.7406 27.8344 24.7469 27.8812 24.7594C27.175 26.6469 24.75 31.925 18.6969 35.4219C15.2937 37.3875 11.9125 37.8031 9.675 37.8031C8.05312 37.8031 6.48437 37.5812 5.375 37.1937C4.825 37.0031 4.625 36.8531 4.58125 36.8156C4.36875 36.5031 4.22187 36.1 4.12812 35.7562C5.6375 34.9906 8.76562 33.35 10.5094 32.0187C14.6781 28.8344 17.4437 26.1187 18.7344 23.95C19.1062 23.3219 19.3187 22.8 19.4281 22.3688ZM18.5469 21.2969C18.5469 21.2969 19.7625 23.7781 9.94062 31.2781C8.11875 32.6687 4.6125 34.4719 3.45312 35.0531C3.2125 35.175 3.06875 35.2437 3.06875 35.2437C3.06875 35.2437 3.20937 36.4906 3.82812 37.3781C3.9875 37.6062 4.42187 37.8562 5.06562 38.0812C6.12187 38.4469 7.74375 38.7406 9.675 38.7406C12.4656 38.7406 15.8937 38.1281 19.1656 36.2344C27.0656 31.6656 29.0219 24.3 29.0219 24.3C29.0219 24.3 28.7406 23.9344 27.8594 23.8062C26.9781 23.6781 24.575 23.7562 23.2406 22.7031C21.9125 21.65 18.5469 21.2969 18.5469 21.2969Z" fill="#424242"/>
</g>
<path d="M25.4125 23.4406C25.4125 23.4406 25.3844 23.5031 25.3344 23.625C25.2812 23.7406 25.2125 23.9313 25.1031 24.1281C24.9031 24.5375 24.575 25.1406 24.1312 25.8313C23.9125 26.1781 23.6594 26.5438 23.3875 26.9281C23.1062 27.3063 22.8156 27.7094 22.4844 28.1063C22.1687 28.5125 21.8094 28.9063 21.4531 29.3156C21.0812 29.7094 20.7094 30.1156 20.3063 30.4906L19.7062 31.0563C19.5031 31.2438 19.2906 31.4125 19.0844 31.5906C18.6781 31.9531 18.2437 32.2594 17.8281 32.5719C17.4156 32.8844 16.9813 33.1375 16.5875 33.4031C16.1781 33.6438 15.7812 33.8563 15.4219 34.0594C15.05 34.2438 14.7 34.3938 14.3937 34.5375C14.0906 34.6906 13.8062 34.7688 13.5781 34.8563C13.1219 35.0219 12.8594 35.1156 12.8594 35.1156C12.8594 35.1156 13.125 35.0344 13.5906 34.8906C13.8219 34.8125 14.1125 34.7469 14.4219 34.6094C14.7344 34.4813 15.0937 34.3438 15.4781 34.1781C15.85 33.9906 16.2625 33.7969 16.6844 33.5719C17.0937 33.3219 17.5437 33.0875 17.975 32.7906C18.4062 32.4938 18.8625 32.2 19.2906 31.8563C19.5062 31.6875 19.7344 31.525 19.9469 31.3438L20.5844 30.7969C21.0094 30.4344 21.4062 30.0375 21.8062 29.6563C22.1875 29.2594 22.5719 28.875 22.9156 28.475C23.2719 28.0875 23.5875 27.6875 23.8937 27.3125C24.1906 26.9313 24.4687 26.5688 24.7094 26.2219C25.2 25.5313 25.5656 24.9313 25.8125 24.4781C25.9437 24.2531 26.0125 24.0875 26.075 23.9688C26.1313 23.8531 26.1625 23.7906 26.1625 23.7906L25.4125 23.4406Z" fill="url(#paint3_linear_2_2)"/>
<path d="M9.30313 28.1688C7.75 28.5844 6.19688 28.9969 4.8 28.2844C4.78125 28.2438 4.7625 28.2031 4.75 28.1594C4.6375 27.6938 4.96563 27.25 5.27813 26.8875C6.0875 25.9469 6.925 25.0281 7.7875 24.1344C9.60313 22.2531 11.15 20.725 13.4875 19.55C15.825 18.3781 18.3719 17.4469 21.4438 18.7313C25.5594 20.45 26.4063 22.9094 26.5625 23.7906C20.1594 22.0219 15.3 25.9531 9.30313 28.1688Z" fill="#F9E68F"/>
<path d="M9.30313 28.1688C15.2969 25.9531 20.3063 21.8125 26.5875 23.7031C26.6406 24 26.5719 23.7594 26.5719 23.7594C25.6094 23.6344 24.2781 23.5469 22.7063 23.7156C22.1813 23.7719 21.05 23.9188 19.5469 24.375C17.6906 24.9375 16.8438 25.4906 14.675 26.5656C10.7688 28.5031 8.29688 29.0219 6.26875 28.9625C5.69688 28.9469 5.01563 28.7781 4.8 28.2813C6.19688 28.9969 7.75 28.5875 9.30313 28.1688Z" fill="#F5CA2C"/>
<g opacity="0.2">
<path d="M18.4375 18.125V19.0625H18.45C19.3312 19.0625 20.1937 19.2344 21.075 19.6031C23.4219 20.5844 24.5687 21.7906 25.125 22.7031C24.9 22.6938 24.675 22.6875 24.4531 22.6875C23.8375 22.6875 23.2156 22.7188 22.6062 22.7875C21.5375 22.9031 20.4187 23.1375 19.2781 23.4813C17.7781 23.9344 16.9094 24.3813 15.5937 25.0563C15.2031 25.2563 14.7687 25.4813 14.2594 25.7313C11.0437 27.325 8.67187 28.0344 6.56875 28.0344C6.475 28.0344 6.38437 28.0344 6.29375 28.0313C5.9875 28.0219 5.78125 27.9594 5.6875 27.9125C5.72187 27.8406 5.80312 27.7156 5.9875 27.5C6.78437 26.5781 7.61562 25.6625 8.4625 24.7875C10.2875 22.8969 11.7312 21.4781 13.8937 20.3906C15.2812 19.6938 16.875 19.05 18.4375 19.05V18.125ZM18.4656 18.1125C16.6562 18.1125 15.0281 18.7813 13.4906 19.5531C11.1531 20.725 9.60625 22.2563 7.79062 24.1375C6.92812 25.0313 6.09062 25.95 5.28125 26.8906C4.96875 27.2531 4.64062 27.7 4.75312 28.1625C4.76562 28.2094 4.78437 28.2469 4.80312 28.2875C5.01875 28.7844 5.7 28.9531 6.27187 28.9688C6.37187 28.9719 6.47187 28.9719 6.57187 28.9719C8.54375 28.9719 10.9625 28.4125 14.6781 26.5688C16.85 25.4938 17.6937 24.9406 19.55 24.3781C21.0531 23.9219 22.1812 23.775 22.7094 23.7188C23.3344 23.65 23.9187 23.625 24.4562 23.625C25.1687 23.625 25.8031 23.6719 26.3375 23.7344C26.4125 23.7531 26.4875 23.7688 26.5625 23.7906C26.5594 23.7813 26.5594 23.7688 26.5562 23.7594C26.5594 23.7594 26.5656 23.7594 26.5719 23.7625C26.5719 23.7625 26.5969 23.8531 26.6062 23.8531C26.6125 23.8531 26.6094 23.8188 26.5875 23.7063C26.5719 23.7031 26.5562 23.6969 26.5406 23.6938C26.3406 22.7438 25.4156 20.3969 21.4437 18.7344C20.3937 18.2906 19.4062 18.1125 18.4656 18.1125Z" fill="#424242"/>
</g>
<defs>
<linearGradient id="paint0_linear_2_2" x1="21.9507" y1="20.7807" x2="13.1341" y2="19.0053" gradientUnits="userSpaceOnUse">
<stop stop-color="#C9A622"/>
<stop offset="0.1997" stop-color="#DEB625"/>
<stop offset="0.4514" stop-color="#F0C529"/>
<stop offset="0.7127" stop-color="#FBCE2A"/>
<stop offset="0.996" stop-color="#FFD12B"/>
</linearGradient>
<linearGradient id="paint1_linear_2_2" x1="29.9666" y1="17.7854" x2="21.4799" y2="16.0765" gradientUnits="userSpaceOnUse">
<stop stop-color="#F0D886"/>
<stop offset="0.1637" stop-color="#F4E196"/>
<stop offset="0.4809" stop-color="#FAEEAF"/>
<stop offset="0.769" stop-color="#FEF6BF"/>
<stop offset="1" stop-color="#FFF9C4"/>
</linearGradient>
<linearGradient id="paint2_linear_2_2" x1="25.4491" y1="23.7051" x2="5.97701" y2="39.0995" gradientUnits="userSpaceOnUse">
<stop stop-color="#C9A622"/>
<stop offset="0.1997" stop-color="#DEB625"/>
<stop offset="0.4514" stop-color="#F0C529"/>
<stop offset="0.7127" stop-color="#FBCE2A"/>
<stop offset="0.996" stop-color="#FFD12B"/>
</linearGradient>
<linearGradient id="paint3_linear_2_2" x1="26.252" y1="24.3486" x2="12.6322" y2="35.9546" gradientUnits="userSpaceOnUse">
<stop stop-color="#B3931E"/>
<stop offset="0.996" stop-color="#FFD12B"/>
</linearGradient>
</defs>
</svg>
