<svg width="45" height="45" viewBox="0 0 45 45" fill="none" xmlns="http://www.w3.org/2000/svg">
<g clip-path="url(#clip0_26_2)">
<path d="M36.5625 45H8.4375C3.77654 45 0 41.2235 0 36.5625V8.4375C0 3.77654 3.77654 1.19209e-06 8.4375 1.19209e-06H36.5625C41.2235 1.19209e-06 45 3.77654 45 8.4375V36.5625C45 41.2235 41.2235 45 36.5625 45ZM32.5038 14.895L30.1015 12.4944C29.6619 12.0531 28.9419 12.0531 28.5023 12.4944L22.5 18.4967L16.4994 12.4962C16.0581 12.0548 15.3398 12.0548 14.8985 12.4996L12.4962 14.895C12.0583 15.3381 12.0583 16.0529 12.4962 16.4977L18.4985 22.4983L12.4979 28.4988C12.0583 28.9419 12.0583 29.6619 12.4979 30.0998L14.9002 32.5021C15.3415 32.9469 16.0615 32.9469 16.5012 32.5021L22.5 26.4998L28.5023 32.5021C28.9437 32.9469 29.6637 32.9469 30.1015 32.5021L32.5038 30.1033C32.9435 29.6619 32.9435 28.9419 32.5056 28.4988L26.5033 22.4983L32.5056 16.4977C32.9417 16.0529 32.9417 15.3381 32.5038 14.895Z" fill="#FFD755"/>
</g>
<defs>
<clipPath id="clip0_26_2">
<rect width="45" height="45" fill="white" transform="matrix(1 0 0 -1 0 45)"/>
</clipPath>
</defs>
</svg>
