<svg width="32" height="32" viewBox="0 0 32 32" fill="none" xmlns="http://www.w3.org/2000/svg">
<path d="M17.9208 1.12514C17.6053 0.940541 17.223 0.960815 16.9259 1.1817L7.21514 9.5881L3.99047 9.59024C2.34136 9.59024 1 10.8793 1 12.4713L1.05129 19.5119C1.05129 21.0976 2.39265 22.3877 4.04079 22.3877L7.2645 22.3898L16.924 30.8175C17.0866 30.9381 17.2753 31 17.465 31C17.6208 31 17.7776 30.9584 17.9189 30.8752C18.2354 30.6905 18.4337 30.3288 18.4337 29.9329V2.0663C18.4337 1.67255 18.2363 1.31082 17.9208 1.12514ZM16.4991 27.9268L8.10357 20.4402C7.94388 20.3218 7.75517 20.2578 7.56258 20.2578L4.04273 20.2556C3.42141 20.2556 2.98784 19.8651 2.98784 19.5066L2.93558 12.466C2.93558 12.116 3.36915 11.7265 3.99047 11.7265L7.51128 11.7244C7.70387 11.7244 7.89162 11.6614 8.05131 11.5419L16.4991 4.0724V27.9268ZM27.5532 16.0183L30.7169 12.4884C31.0944 12.0723 31.0944 11.3957 30.7169 10.9796C30.3395 10.5634 29.7269 10.5634 29.3485 10.9796L26.1925 14.4998L23.0366 10.9796C22.6591 10.5634 22.0465 10.5634 21.6681 10.9796C21.2897 11.3957 21.2907 12.0723 21.6681 12.4884L24.8308 16.0183L21.6971 19.514C21.3197 19.9302 21.3197 20.6067 21.6971 21.0229C22.0746 21.439 22.6881 21.439 23.0666 21.0229L26.1915 17.5367L29.3165 21.0229C29.694 21.439 30.3066 21.439 30.685 21.0229C31.0634 20.6067 31.0624 19.9302 30.685 19.514L27.5532 16.0183Z" fill="#FFE604" stroke="black" stroke-width="0.1"/>
</svg>
