<svg width="32" height="32" viewBox="0 0 32 32" fill="none" xmlns="http://www.w3.org/2000/svg">
<path d="M17.8851 1.12514C17.5703 0.940541 17.1888 0.960815 16.8923 1.1817L7.20203 9.5881L3.98416 9.59024C2.33853 9.59024 1 10.8793 1 12.4713L1.05118 19.5119C1.05118 21.0976 2.38971 22.3877 4.03438 22.3877L7.25129 22.3898L16.8904 30.8175C17.0527 30.9381 17.241 31 17.4303 31C17.5858 31 17.7422 30.9584 17.8832 30.8752C18.199 30.6905 18.397 30.3288 18.397 29.9329V2.0663C18.397 1.67255 18.2 1.30975 17.8842 1.12408L17.8851 1.12514ZM16.4665 27.9268L8.08859 20.4402C7.92924 20.3218 7.74092 20.2578 7.54874 20.2578L4.03631 20.2556C3.4163 20.2556 2.98365 19.8651 2.98365 19.5066L2.9315 12.466C2.9315 12.116 3.36415 11.7265 3.98416 11.7265L7.49755 11.7244C7.68974 11.7244 7.87709 11.6614 8.03644 11.5419L16.4665 4.0724V27.9268ZM26.1539 16.1848C26.1539 13.3506 24.3904 10.9678 21.9616 10.5197C21.4275 10.4226 20.9369 10.8152 20.85 11.3968C20.7631 11.9783 21.1175 12.5279 21.6438 12.625C23.163 12.9046 24.2233 14.3697 24.2233 16.1848C24.2233 17.9134 23.1253 19.4084 21.6129 19.7424C21.0895 19.8576 20.7505 20.4189 20.8548 20.9973C20.9466 21.5052 21.3493 21.8562 21.8012 21.8562C21.8631 21.8562 21.9278 21.8498 21.9915 21.8349C24.4039 21.3035 26.1558 18.9261 26.1558 16.1837L26.1539 16.1848ZM24.8723 6.39435C24.373 6.18948 23.8158 6.46905 23.6304 7.02179C23.443 7.57347 23.698 8.1881 24.1973 8.39405C27.1109 9.59557 29.0675 12.7253 29.0675 16.1848C29.0675 19.6453 27.1109 22.7825 24.1992 23.9883C23.6999 24.1963 23.4469 24.8099 23.6333 25.3616C23.7791 25.7905 24.147 26.0541 24.5382 26.0541C24.6512 26.0541 24.7651 26.0328 24.8772 25.9858C28.5393 24.4684 31 20.5299 31 16.1837C31 11.8375 28.5373 7.90426 24.8733 6.39329L24.8723 6.39435Z" fill="#FFE604" stroke="black" stroke-width="0.1"/>
</svg>
